<svg xmlns="http://www.w3.org/2000/svg" xmlns:xlink="http://www.w3.org/1999/xlink" width="221.707" height="87.63" viewBox="0 0 221.707 87.63">
  <defs>
    <clipPath id="clip-path">
      <path id="Path_4" data-name="Path 4" d="M0,44.917H221.707V-42.712H0Z" transform="translate(0 42.712)" fill="none"/>
    </clipPath>
  </defs>
  <g id="Belcan-logo" transform="translate(0 0.001)">
    <path id="Path_1" data-name="Path 1" d="M0,44.916H221.707V-42.711H0Z" transform="translate(0 42.713)" fill="#002742"/>
    <g id="Group_3" data-name="Group 3" transform="translate(0 -0.001)" clip-path="url(#clip-path)">
      <g id="Group_1" data-name="Group 1" transform="translate(37.612 27.353)">
        <path id="Path_2" data-name="Path 2" d="M0,0H17.1q4.278,0,6.565,2.093a6.751,6.751,0,0,1,2.288,5.184,6.49,6.49,0,0,1-1.633,4.446,7.285,7.285,0,0,1-3.186,1.955,8.309,8.309,0,0,1,4.69,2.6,7.1,7.1,0,0,1,1.5,4.635,7.813,7.813,0,0,1-3.995,6.959,9.738,9.738,0,0,1-3.467.958,40.793,40.793,0,0,1-4.093.4H0ZM9.216,11.464h3.972a4.6,4.6,0,0,0,2.975-.728A2.634,2.634,0,0,0,17,8.633a2.485,2.485,0,0,0-.837-1.994,4.53,4.53,0,0,0-2.913-.718H9.216Zm0,11.485h4.659a5.159,5.159,0,0,0,3.326-.829,2.769,2.769,0,0,0,.968-2.222,2.562,2.562,0,0,0-.958-2.084,5.411,5.411,0,0,0-3.356-.788H9.216Z" fill="#fff"/>
      </g>
      <g id="Group_2" data-name="Group 2" transform="translate(67.501 35.263)">
        <path id="Path_3" data-name="Path 3" d="M12.715,6.637H-3.741A5.122,5.122,0,0,0-2.672,9.519,3.928,3.928,0,0,0,.434,10.88a4.749,4.749,0,0,0,2.3-.591A5.347,5.347,0,0,0,4.164,8.965l8.077,0a8.587,8.587,0,0,1-4.466,5.262A16.563,16.563,0,0,1,.252,15.6a15.669,15.669,0,0,1-6.694-1.176,9.734,9.734,0,0,1-4.044-3.73,11.07,11.07,0,0,1-1.6-6.009A10.448,10.448,0,0,1-8.874-3.273Q-5.658-6.31.009-6.311A16.1,16.1,0,0,1,7.27-4.949,9.294,9.294,0,0,1,11.324-1a14.167,14.167,0,0,1,1.391,6.729ZM4.365,2.788A5.294,5.294,0,0,0,3.085-.548,3.758,3.758,0,0,0,.352-1.555,3.743,3.743,0,0,0-2.773-.035,5.475,5.475,0,0,0-3.72,2.788Z" transform="translate(12.091 6.311)" fill="#fff"/>
      </g>
    </g>
    <path id="Path_5" data-name="Path 5" d="M47.047-29.391h8.369v29.3H47.047Z" transform="translate(49.476 56.72)" fill="#fff"/>
    <g id="Group_7" data-name="Group 7" transform="translate(0 -0.001)" clip-path="url(#clip-path)">
      <g id="Group_4" data-name="Group 4" transform="translate(108.472 35.124)">
        <path id="Path_6" data-name="Path 6" d="M8.5,7.16l7.591-.045a8.486,8.486,0,0,1-1.631,4.468,8.462,8.462,0,0,1-3.679,2.708,13.647,13.647,0,0,1-5.578.966,22.507,22.507,0,0,1-5.773-.626,10.209,10.209,0,0,1-3.968-2.025,10.283,10.283,0,0,1-2.6-3.289,11.24,11.24,0,0,1-.946-5A11.5,11.5,0,0,1-6.936-1.11a9.88,9.88,0,0,1,2.3-2.85,10.618,10.618,0,0,1,3-1.877,17.087,17.087,0,0,1,6.255-.972c3.555,0,5.7.64,7.568,1.871a8.381,8.381,0,0,1,4.052,6.682L8.5,1.7A3.429,3.429,0,0,0,7.472-.576a4.176,4.176,0,0,0-2.614-.687A4.28,4.28,0,0,0,1.5.177,6.377,6.377,0,0,0,.224,4.532a5.556,5.556,0,0,0,1.27,3.949A4.264,4.264,0,0,0,4.736,9.83a4.55,4.55,0,0,0,2.757-.814A2.3,2.3,0,0,0,8.5,7.16" transform="translate(8.085 6.809)" fill="#fff"/>
      </g>
      <g id="Group_5" data-name="Group 5" transform="translate(136.19 35.147)">
        <path id="Path_7" data-name="Path 7" d="M4.3,3.405H-3.318A7.757,7.757,0,0,1-2.22.047a6.865,6.865,0,0,1,2.331-2A9.692,9.692,0,0,1,3.118-2.9a23.98,23.98,0,0,1,4.138-.334,32.638,32.638,0,0,1,5.738.4,7.343,7.343,0,0,1,3.611,1.686,5.905,5.905,0,0,1,1.6,2.515,9.136,9.136,0,0,1,.587,3.106v9.251a11.338,11.338,0,0,0,.185,2.318,10.455,10.455,0,0,0,.81,2.14H12.33a7.609,7.609,0,0,1-.585-1.233,8.969,8.969,0,0,1-.273-1.332,10.305,10.305,0,0,1-3.1,2.171,12.8,12.8,0,0,1-4.9.868,8.146,8.146,0,0,1-5.632-1.736A5.54,5.54,0,0,1-4.085,12.64,5.646,5.646,0,0,1-2.7,8.715c.923-1.026,2.63-1.779,5.115-2.288a36.6,36.6,0,0,1,5.537-.769,27.054,27.054,0,0,0,3.073-.482,4.517,4.517,0,0,0-.607-3.049A3.019,3.019,0,0,0,8.29,1.536a5.426,5.426,0,0,0-2.876.421A2.383,2.383,0,0,0,4.3,3.405m6.727,4.838c-1.278.336-2.462.741-3.771,1.071a8.516,8.516,0,0,0-3.385,1.471,2.243,2.243,0,0,0-.012,3.309,3.064,3.064,0,0,0,2.123.657,5.466,5.466,0,0,0,2.729-.712A4.3,4.3,0,0,0,10.494,12.3a5.758,5.758,0,0,0,.529-2.661Z" transform="translate(4.085 3.238)" fill="#fff"/>
      </g>
      <g id="Group_6" data-name="Group 6" transform="translate(163.625 35.217)">
        <path id="Path_8" data-name="Path 8" d="M0,.242H7.406v3.4A11.04,11.04,0,0,1,10.769.665,8.805,8.805,0,0,1,14.913-.23a6.758,6.758,0,0,1,5.168,1.978q1.868,1.976,1.867,6.108v13.28H13.955V9.647a4.2,4.2,0,0,0-.724-2.784A2.573,2.573,0,0,0,11.2,6.046a2.886,2.886,0,0,0-2.347,1.1q-.9,1.1-.9,3.953V21.136H0Z" transform="translate(0 0.23)" fill="#fff"/>
      </g>
    </g>
  </g>
</svg>
