<?xml version="1.0" encoding="utf-8"?>
<!-- Generator: Adobe Illustrator 25.4.3, SVG Export Plug-In . SVG Version: 6.00 Build 0)  -->
<svg version="1.1" id="Layer_1" xmlns="http://www.w3.org/2000/svg" xmlns:xlink="http://www.w3.org/1999/xlink" x="0px" y="0px"
	 viewBox="0 0 432 144" style="enable-background:new 0 0 432 144;" xml:space="preserve">
<style type="text/css">
	.st0{fill:#FFFFFF;}
	.st1{fill:#2F6074;}
	.st2{fill:none;stroke:#000000;stroke-width:1.7373;stroke-miterlimit:10;}
</style>
<g>
	<g>
		<path class="st0" d="M23.83,65.43V40.16h20.33c1.86,0,3.21,0.38,4.06,1.15c0.85,0.77,1.28,2.02,1.28,3.74v5.63
			c0,1.73-0.43,2.98-1.28,3.74c-0.84,0.77-2.19,1.15-4.05,1.15h-3.72L52,65.43h-6.26l-10.28-9.84h-7.42v9.84H23.83z M42.53,43.44
			H28.04v8.86h14.49c1.01,0,1.72-0.18,2.13-0.54c0.41-0.36,0.61-1.05,0.61-2.06v-3.67c0-0.98-0.2-1.65-0.61-2.03
			C44.25,43.63,43.54,43.44,42.53,43.44z"/>
		<path class="st0" d="M83.8,65.43V40.16h24.34v3.38H88.01v7.05h12.29v3.33H88.01v8.03h20.32v3.48H83.8z"/>
		<path class="st0" d="M162.63,43.54h-17.87v7.1h15.91c2.29,0,3.83,0.43,4.65,1.27c0.82,0.85,1.23,2.42,1.23,4.7v2.84
			c0,2.32-0.41,3.89-1.23,4.73s-2.36,1.25-4.65,1.25h-14.74c-2.29,0-3.84-0.42-4.68-1.25c-0.83-0.83-1.25-2.41-1.25-4.73v-0.69
			l3.92-0.93v4.06h18.8v-7.59h-15.86c-2.25,0-3.79-0.42-4.63-1.25c-0.83-0.83-1.25-2.41-1.25-4.73v-2.2c0-2.35,0.42-3.93,1.25-4.75
			c0.84-0.81,2.38-1.22,4.63-1.22h13.46c2.16,0,3.69,0.38,4.58,1.16s1.34,2.21,1.34,4.32v0.54l-3.63,1.03V43.54z"/>
		<path class="st0" d="M200.33,65.43V40.16h20.33c1.86,0,3.21,0.38,4.06,1.15c0.85,0.77,1.28,2.02,1.28,3.74v5.63
			c0,1.73-0.43,2.98-1.28,3.74c-0.84,0.77-2.19,1.15-4.05,1.15h-16.12v9.84H200.33z M219.04,43.44h-14.49v8.76h14.49
			c1.01,0,1.72-0.19,2.13-0.56c0.41-0.37,0.61-1.06,0.61-2.07v-3.5c0-1.01-0.22-1.7-0.63-2.07
			C220.72,43.63,220.02,43.44,219.04,43.44z"/>
		<polygon class="st1" points="271.09,40.16 266.59,40.16 252.77,65.43 256.94,65.43 260.17,59.21 268.74,43.05 277.26,59.21 
			280.49,65.43 285.15,65.43 		"/>
		<path class="st0" d="M318.83,65.43l-9.15-25.27h4.26l6.86,20.07l7.44-20.07h2.59l7.2,20.07l6.9-20.07h3.77l-9.15,25.27h-3.14
			l-7-19.1l-7.24,19.1H318.83z"/>
		<path class="st0" d="M379.97,65.43V40.16h2.65l18.9,16.89c0.91,0.82,1.88,1.88,2.89,3.18c-0.26-1.57-0.4-3.64-0.4-6.22V40.16h3.92
			v25.27h-2.36l-19.44-17.58c-0.72-0.65-1.13-1.03-1.22-1.12c-0.53-0.52-0.97-1.09-1.32-1.71c0.2,1.5,0.29,3.35,0.29,5.53v14.89
			H379.97z"/>
	</g>
	<g>
		<path class="st0" d="M23.83,80.21h19.19c3.43,0,5.04,1.22,5.04,4.34v5.26c0,3.13-1.61,4.34-5.04,4.34h-2.95l10.33,8.47h-7.47
			l-9.03-8.47h-4.95v8.47h-5.13V80.21z M28.95,84.08v6.25h11.72c1.6,0,2.34-0.31,2.34-1.78v-2.69c0-1.48-0.74-1.78-2.34-1.78H28.95z
			"/>
		<path class="st0" d="M83.05,80.21h16.5c4.22,0,5.56,1.09,5.56,5.3v11.81c0,4.21-1.34,5.3-5.56,5.3h-16.5
			c-4.21,0-5.56-1.09-5.56-5.3V85.51C77.49,81.3,78.84,80.21,83.05,80.21z M99.89,98.4v-14.2H82.7v14.2H99.89z"/>
		<path class="st0" d="M134.61,80.21h19.19c3.43,0,5.03,1.22,5.03,4.34v2.73c0,2.17-1.39,3.47-3.86,3.78
			c2.61,0.35,4.04,1.91,4.04,4.3v2.86c0,3-2.22,4.39-6.6,4.39h-17.8V80.21z M139.73,83.86v5.34h11.9c1.6,0,2.39-0.3,2.39-1.6v-2.13
			c0-1.31-0.78-1.61-2.39-1.61H139.73z M139.73,92.89v5.69h11.9c1.78,0,2.52-0.35,2.52-1.99v-1.69c0-1.65-0.74-2-2.52-2H139.73z"/>
		<path class="st0" d="M193.27,80.21h16.5c4.22,0,5.56,1.09,5.56,5.3v11.81c0,4.21-1.34,5.3-5.56,5.3h-16.5
			c-4.21,0-5.56-1.09-5.56-5.3V85.51C187.71,81.3,189.06,80.21,193.27,80.21z M210.11,98.4v-14.2h-17.19v14.2H210.11z"/>
		<path class="st0" d="M257.54,102.62h-5.21V84.21h-10.29v-3.99h25.84v3.99h-10.34V102.62z"/>
		<path class="st0" d="M294.83,80.21h5.21v22.4h-5.21V80.21z"/>
		<path class="st0" d="M334.67,84.21v14.2h14.07v-4.82l5.21,1.09v2.65c0,4.21-1.34,5.3-5.56,5.3h-13.37c-4.21,0-5.56-1.09-5.56-5.3
			V85.51c0-4.21,1.35-5.3,5.56-5.3h13.37c4.22,0,5.56,1.09,5.56,5.3v2.13l-5.21,0.83v-4.26H334.67z"/>
		<path class="st0" d="M388.35,84.12v4.82h13.98c4.21,0,5.6,1.08,5.6,5.29v3.08c0,4.21-1.39,5.3-5.6,5.3h-13.85
			c-4.21,0-5.6-1.09-5.6-5.3v-0.61l4.6-0.96v2.65h15.85v-5.12h-13.98c-4.21,0-5.56-1.09-5.56-5.3v-2.47c0-4.21,1.35-5.3,5.56-5.3
			h12.72c3.99,0,5.56,1.04,5.56,4.91v0.48l-4.6,1.09v-2.56H388.35z"/>
	</g>
	<g>
		<line class="st2" x1="23.83" y1="73.32" x2="407.63" y2="73.32"/>
	</g>
</g>
</svg>
